<svg xmlns="http://www.w3.org/2000/svg" width="157" height="343" viewBox="0 0 157 343" fill="none">
  <path d="M30.57 3.396C31.13.274 34.86-1.07 37.284.976l25.518 21.556c7.393-.518 15.116-.127 22.957 1.282 7.818 1.405 15.175 3.72 21.909 6.765l31.902-10.846c3.003-1.02 5.986 1.593 5.369 4.705l-6.151 30.997c8.02 11.323 11.662 24.456 9.3 37.6-5.27 29.327-38.543 48.206-75.936 44.14l2.396 6.647c.768 2.132-1.06 4.295-3.29 3.895l-15.055-2.705c-2.23-.401-3.19-3.066-1.727-4.797l1.284-1.522c-10.35 6.896-14.693 20.688-9.007 32.654l5.962 12.549a40.01 40.01 0 0 1-7.261 44.864l-19.953 20.802a49.14 49.14 0 0 0-13.677 34.018l.002 49.78a1.261 1.261 0 0 1-2.52-.001l-.002-49.779a51.66 51.66 0 0 1 14.378-35.762l19.952-20.802a37.49 37.49 0 0 0 6.805-42.037l-5.963-12.55c-6.869-14.455-.4-31.339 13.517-37.882-35.889-9.5-59.983-38.5-54.764-67.544C5.58 53.924 13.5 42.923 24.87 35.11z" fill="#FF4796" transform="translate(7.497 7.56)" />
  <path d="M30.57 3.396C31.13.274 34.86-1.07 37.284.976l25.518 21.556c7.393-.518 15.116-.127 22.957 1.282 7.818 1.405 15.175 3.72 21.909 6.765l31.902-10.846c3.003-1.02 5.986 1.593 5.369 4.705l-6.151 30.997c8.02 11.323 11.662 24.456 9.3 37.6-5.27 29.327-38.543 48.206-75.936 44.14l2.396 6.647c.768 2.132-1.06 4.295-3.29 3.895l-15.055-2.705c-2.23-.401-3.19-3.066-1.727-4.797l1.284-1.522c-10.35 6.896-14.693 20.688-9.007 32.654l5.962 12.549a40.01 40.01 0 0 1-7.261 44.864l-19.953 20.802a49.14 49.14 0 0 0-13.677 34.018l.002 49.78a1.261 1.261 0 0 1-2.52-.001l-.002-49.779a51.66 51.66 0 0 1 14.378-35.762l19.952-20.802a37.49 37.49 0 0 0 6.805-42.037l-5.963-12.55c-6.869-14.455-.4-31.339 13.517-37.882-35.889-9.5-59.983-38.5-54.764-67.544C5.58 53.924 13.5 42.923 24.87 35.11z" fill="#0DFF94" transform="translate(-2.52 5.623)" />
  <path d="M30.57 3.396C31.13.274 34.86-1.07 37.284.976l25.518 21.556c7.393-.518 15.116-.127 22.957 1.282 7.818 1.405 15.175 3.72 21.909 6.765l31.902-10.846c3.003-1.02 5.986 1.593 5.369 4.705l-6.151 30.997c8.02 11.323 11.662 24.456 9.3 37.6-5.27 29.327-38.543 48.206-75.936 44.14l2.396 6.647c.768 2.132-1.06 4.295-3.29 3.895l-15.055-2.705c-2.23-.401-3.19-3.066-1.727-4.797l1.284-1.522c-10.35 6.896-14.693 20.688-9.007 32.654l5.962 12.549a40.01 40.01 0 0 1-7.261 44.864l-19.953 20.802a49.14 49.14 0 0 0-13.677 34.018l.002 49.78a1.261 1.261 0 0 1-2.52-.001l-.002-49.779a51.66 51.66 0 0 1 14.378-35.762l19.952-20.802a37.49 37.49 0 0 0 6.805-42.037l-5.963-12.55c-6.869-14.455-.4-31.339 13.517-37.882-35.889-9.5-59.983-38.5-54.764-67.544C5.58 53.924 13.5 42.923 24.87 35.11z" fill="#FFFFFF" />
</svg>

