<svg xmlns="http://www.w3.org/2000/svg" width="195" height="265" viewBox="0 0 195 265" fill="none">
  <path d="M188.077 33.402c.853-2.606-1.434-5.158-4.117-4.595l-28.255 5.94c-5.413-3.425-11.448-6.295-17.991-8.437-6.528-2.138-13.078-3.393-19.455-3.836L98.429 1.139C96.564-.87 93.223-.104 92.417 2.516l-8.033 26.12c-10.74 5.327-18.89 13.826-22.48 24.79-8.015 24.477 9.56 52.484 39.68 64.723l-4.548 4.076c-1.459 1.307-.955 3.703.906 4.313l12.565 4.114a2.5 2.5 0 0 0 1.934-.145c-.856 4.768-4.678 8.953-10.343 9.392l-21.852 1.692c-16.76 1.298-26.67 19.381-18.745 34.207l10.591 19.813c11.39 21.308-1.172 47.548-24.912 52.038l-44.114 8.342a1.09 1.09 0 0 0 .405 2.141l44.113-8.343c25.186-4.763 38.513-32.6 26.43-55.206L63.42 174.771c-7.184-13.44 1.8-29.831 16.993-31.008l21.851-1.693c10.311-.798 15.494-12.013 10.789-20.207 31.341 7.68 61.782-4.507 69.752-28.848 3.575-10.919 2.058-22.54-3.394-33.151z" fill="#FF4796" transform="translate(6.48 6.535)" />
  <path d="M188.077 33.402c.853-2.606-1.434-5.158-4.117-4.595l-28.255 5.94c-5.413-3.425-11.448-6.295-17.991-8.437-6.528-2.138-13.078-3.393-19.455-3.836L98.429 1.139C96.564-.87 93.223-.104 92.417 2.516l-8.033 26.12c-10.74 5.327-18.89 13.826-22.48 24.79-8.015 24.477 9.56 52.484 39.68 64.723l-4.548 4.076c-1.459 1.307-.955 3.703.906 4.313l12.565 4.114a2.5 2.5 0 0 0 1.934-.145c-.856 4.768-4.678 8.953-10.343 9.392l-21.852 1.692c-16.76 1.298-26.67 19.381-18.745 34.207l10.591 19.813c11.39 21.308-1.172 47.548-24.912 52.038l-44.114 8.342a1.09 1.09 0 0 0 .405 2.141l44.113-8.343c25.186-4.763 38.513-32.6 26.43-55.206L63.42 174.771c-7.184-13.44 1.8-29.831 16.993-31.008l21.851-1.693c10.311-.798 15.494-12.013 10.789-20.207 31.341 7.68 61.782-4.507 69.752-28.848 3.575-10.919 2.058-22.54-3.394-33.151z" fill="#0DFF94" transform="translate(-2.178 4.86)" />
  <path d="M188.077 33.402c.853-2.606-1.434-5.158-4.117-4.595l-28.255 5.94c-5.413-3.425-11.448-6.295-17.991-8.437-6.528-2.138-13.078-3.393-19.455-3.836L98.429 1.139C96.564-.87 93.223-.104 92.417 2.516l-8.033 26.12c-10.74 5.327-18.89 13.826-22.48 24.79-8.015 24.477 9.56 52.484 39.68 64.723l-4.548 4.076c-1.459 1.307-.955 3.703.906 4.313l12.565 4.114a2.5 2.5 0 0 0 1.934-.145c-.856 4.768-4.678 8.953-10.343 9.392l-21.852 1.692c-16.76 1.298-26.67 19.381-18.745 34.207l10.591 19.813c11.39 21.308-1.172 47.548-24.912 52.038l-44.114 8.342a1.09 1.09 0 0 0 .405 2.141l44.113-8.343c25.186-4.763 38.513-32.6 26.43-55.206L63.42 174.771c-7.184-13.44 1.8-29.831 16.993-31.008l21.851-1.693c10.311-.798 15.494-12.013 10.789-20.207 31.341 7.68 61.782-4.507 69.752-28.848 3.575-10.919 2.058-22.54-3.394-33.151z" fill="#FFFFFF" />
</svg>

