<svg xmlns="http://www.w3.org/2000/svg" width="239" height="427" viewBox="0 0 239 427" fill="none">
  <path d="M20.849 57.92c-1.276-3.885 2.134-7.695 6.136-6.856l42.142 8.828c8.068-5.113 17.067-9.399 26.823-12.6 9.731-3.194 19.495-5.074 29.001-5.74L154.5 9.715c2.782-2.998 7.765-1.86 8.97 2.048L175.473 50.7c16.025 7.933 28.194 20.6 33.56 36.951 11.976 36.492-14.204 78.275-59.104 96.557l6.786 6.075c2.176 1.948 1.428 5.521-1.348 6.432l-18.732 6.148a3.74 3.74 0 0 1-2.882-.211c1.284 7.109 6.986 13.344 15.434 13.993l42.303 3.247c22.887 1.757 39.334 22.775 35.536 45.413l-5.525 32.918a63.4 63.4 0 0 0-.873 10.481l-.001 106.296a1.625 1.625 0 0 1-3.249 0l.002-106.297c0-3.692.307-7.377.918-11.018l5.523-32.918c3.482-20.755-11.596-40.025-32.579-41.636l-42.304-3.247c-15.379-1.181-23.118-17.901-16.109-30.125-46.731 11.488-92.144-6.656-104.055-42.949-5.342-16.276-3.092-33.606 5.024-49.433z" fill="#FF4796" transform="translate(9.664 9.746)" />
  <path d="M20.849 57.92c-1.276-3.885 2.134-7.695 6.136-6.856l42.142 8.828c8.068-5.113 17.067-9.399 26.823-12.6 9.731-3.194 19.495-5.074 29.001-5.74L154.5 9.715c2.782-2.998 7.765-1.86 8.97 2.048L175.473 50.7c16.025 7.933 28.194 20.6 33.56 36.951 11.976 36.492-14.204 78.275-59.104 96.557l6.786 6.075c2.176 1.948 1.428 5.521-1.348 6.432l-18.732 6.148a3.74 3.74 0 0 1-2.882-.211c1.284 7.109 6.986 13.344 15.434 13.993l42.303 3.247c22.887 1.757 39.334 22.775 35.536 45.413l-5.525 32.918a63.4 63.4 0 0 0-.873 10.481l-.001 106.296a1.625 1.625 0 0 1-3.249 0l.002-106.297c0-3.692.307-7.377.918-11.018l5.523-32.918c3.482-20.755-11.596-40.025-32.579-41.636l-42.304-3.247c-15.379-1.181-23.118-17.901-16.109-30.125-46.731 11.488-92.144-6.656-104.055-42.949-5.342-16.276-3.092-33.606 5.024-49.433z" fill="#0DFF94" transform="translate(-3.248 7.248)" />
  <path d="M20.849 57.92c-1.276-3.885 2.134-7.695 6.136-6.856l42.142 8.828c8.068-5.113 17.067-9.399 26.823-12.6 9.731-3.194 19.495-5.074 29.001-5.74L154.5 9.715c2.782-2.998 7.765-1.86 8.97 2.048L175.473 50.7c16.025 7.933 28.194 20.6 33.56 36.951 11.976 36.492-14.204 78.275-59.104 96.557l6.786 6.075c2.176 1.948 1.428 5.521-1.348 6.432l-18.732 6.148a3.74 3.74 0 0 1-2.882-.211c1.284 7.109 6.986 13.344 15.434 13.993l42.303 3.247c22.887 1.757 39.334 22.775 35.536 45.413l-5.525 32.918a63.4 63.4 0 0 0-.873 10.481l-.001 106.296a1.625 1.625 0 0 1-3.249 0l.002-106.297c0-3.692.307-7.377.918-11.018l5.523-32.918c3.482-20.755-11.596-40.025-32.579-41.636l-42.304-3.247c-15.379-1.181-23.118-17.901-16.109-30.125-46.731 11.488-92.144-6.656-104.055-42.949-5.342-16.276-3.092-33.606 5.024-49.433z" fill="#FFFFFF" />
</svg>
