<svg xmlns="http://www.w3.org/2000/svg" width="145" height="35" fill="none" viewBox="0 0 145 35"><g clip-path="url(#a)"><path fill="#fff" d="m41.576 22.391 4.622-16.165h5.18L44.258 27h-3.382zm-4.21-16.165 4.609 16.165.728 4.609h-3.425L32.201 6.226zm26.533 0V27h-4.637V6.226zm17.9 11.8h-5.335l-.029-3.111h4.409q1.17 0 1.898-.285.742-.285 1.084-.828.342-.555.342-1.37 0-.927-.342-1.498-.343-.57-1.084-.827-.728-.271-1.884-.271h-2.71V27h-4.652V6.226h7.362q1.87 0 3.339.342 1.47.342 2.497 1.056a4.74 4.74 0 0 1 1.584 1.784q.542 1.07.542 2.525 0 1.27-.571 2.369-.556 1.098-1.798 1.783-1.24.684-3.324.742zM81.615 27H75.28l1.684-3.596h4.651q1.07 0 1.741-.342.67-.342.985-.927.313-.585.313-1.313 0-.855-.3-1.484a2.05 2.05 0 0 0-.912-.97q-.614-.343-1.641-.343h-4.166l.028-3.11h5.094l1.084 1.227q1.983-.043 3.168.642 1.198.67 1.726 1.77.528 1.098.528 2.325 0 2.026-.87 3.396-.87 1.356-2.583 2.04-1.698.685-4.195.685m30.628-3.596V27h-11.058v-3.596zm-9.474-17.178V27h-4.651V6.226zm8.047 8.36v3.482h-9.631v-3.481zm1.441-8.36v3.61h-11.072v-3.61z"/></g><defs><clipPath id="a"><path fill="#fff" d="M0 0h145v35H0z"/></clipPath></defs></svg>