<svg xmlns="http://www.w3.org/2000/svg" width="18" height="18" fill="none"><path fill="#1A272E" d="M5.786 12.235q-.498 0-.996-.02l-2.924-.063h-.145q-1.182 0-1.472-.311Q0 11.593 0 10.866L.041 9.85l.25-4.064 2.654-.021 2.82-.02h.062l.042-1.183.103-3.069v-.228q0-.87.208-1.058.207-.186.912-.186l.415.02 3.38.021Q11.281 0 11.551 0q.33 0 .435.104.166.145.166.85v.394q.042 2.22.062 4.458 2.22.021 4.438.063h.394q.705 0 .85.166.105.103.104.435 0 .27-.062.664l.02 3.38.021.415q0 .705-.186.912-.187.207-1.058.207h-.228l-3.07.104-1.16.042v.041l-.021 2.82-.021 2.655-4.064.248L7.154 18q-.725 0-.974-.249-.311-.29-.311-1.472v-.145l-.063-2.924q-.02-.477-.02-.975"/></svg>