<svg xmlns="http://www.w3.org/2000/svg" xmlns:xlink="http://www.w3.org/1999/xlink" fill="none" viewBox="0 0 1440 401">
  <g fill="#fdcf01" clip-path="url(#a)">
    <path d="m1246.82 126.772 139.8 12.97-3.91 42.126-139.8-12.97zm123.4 11.448 4.84.449 7.26-1.207 30.59 6.599c-2.82 14.277-6.37 29.49-10.62 45.639-4.01 16.172-8.14 32.333-12.4 48.483-4.25 16.149-8.55 31.417-12.89 45.804l-41.34-8.347c3.25-10.728 6.57-22.202 9.96-34.421s6.52-24.336 9.39-36.353c3.14-12.242 5.95-23.638 8.43-34.186q4.14-16.161 6.36-27.987zm-1.74 95.72 55.17 5.119-3.7 39.889-67.1-6.225zm43.62 4.047 8.94.83 7.56-.427 27.44 12.321c-10.56 40.882-24.68 75.544-42.36 103.984q-26.145 42.6945-61.65 68.73c-23.42 17.379-49.54 29.997-78.34 37.853-1.66-3.664-4.01-8.143-7.02-13.436-2.8-5.022-5.84-10.067-9.13-15.135-3.31-4.819-6.33-8.735-9.06-11.745 27.17-6.503 51.44-16.785 72.8-30.847 21.36-14.061 39.51-32.806 54.47-56.235 15.23-23.654 27.08-52.76 35.55-87.319zm-101.55-56.422c.91 19.887 2.8 39.991 5.68 60.312 2.9 20.072 7.34 39.785 13.31 59.14 6 19.106 14.08 37.402 24.24 54.889 10.18 17.238 22.88 33.08 38.08 47.526 15.48 14.22 34.03 26.344 55.66 36.372-3.26 2.705-6.97 6.246-11.14 10.623-3.92 4.399-7.85 8.922-11.79 13.57-3.96 4.897-7.26 9.354-9.89 13.371-21.96-11.814-40.73-25.712-56.29-41.695-15.31-15.96-28.12-33.316-38.41-52.068-10.04-18.73-18.13-38.28-24.26-58.652-6.11-20.62-10.69-41.475-13.75-62.564-3.03-21.338-5.1-42.335-6.19-62.991zm-157.13-49.17 86.49 8.024-19.68 212.122-86.48-8.024 3.83-41.381 46.23 4.289 12-129.361-46.22-4.288zm-23.48-2.179 39.89 3.701-22.48 242.318-39.89-3.701zm143.92 21.248 45 5.304c-2.57 22.321-5.57 45.23-9.01 68.725-3.43 23.495-8.08 46.627-13.95 69.394-5.63 22.791-12.9 44.426-21.82 64.905-8.92 20.48-19.91 39.012-32.98 55.597-12.82 16.608-28.39 30.455-46.72 41.539-1.96-3.19-4.61-7.071-7.94-11.641-3.36-4.323-6.97-8.668-10.83-13.037q-5.445-6.1455-9.6-9.915 25.035-14.598 42.54-37.038 17.49-22.4415 29.07-49.944c7.74-18.583 13.95-38.186 18.62-58.809s8.24-41.599 10.72-62.926q4.095-31.9575 6.9-62.154M859.79 253.676l218.83 20.302-3.91 42.126-218.828-20.302zm96.592-121.137 44.738 4.151-23.071 248.655c-1.084 11.681-3.405 20.49-6.964 26.427-3.333 6.208-8.889 10.706-16.668 13.493-7.779 2.788-17.182 4.172-28.21 4.151-11.027-.02-24.246-.745-39.654-2.175-.441-6.056-1.749-13.573-3.925-22.548-2.198-8.727-4.772-16.11-7.721-22.149 10.144 1.443 19.926 2.726 29.347 3.851 9.693.899 16.166 1.375 19.42 1.426 3.48.323 5.887.045 7.222-.834 1.358-1.128 2.187-3.307 2.486-6.538zm100.128-37.7105 26.44 39.3005c-14.51 2.414-30.25 4.464-47.2 6.15-16.68 1.461-33.94 2.491-51.796 3.091-17.854.599-35.672.826-53.456.68s-35.048-.494-51.792-1.045q-.3915-7.932-3.117-19.089c-1.794-7.687-3.59-13.995-5.389-18.924 16.27.256 32.812.286 49.625.092 17.061-.172 33.773-.627 50.135-1.365 16.611-.715 32.25-1.771 46.92-3.168q22.035-2.467 39.63-5.7225m-16.69 66.5075 42.47 16.349c-4.94 10.07-10.28 20.353-16.02 30.85-5.49 10.521-10.93 20.544-16.33 30.07-5.37 9.278-10.51 17.449-15.43 24.513l-34.38-14.47c4.74-7.833 9.44-16.671 14.12-26.515q7.41-15.1035 14.16-31.023c4.49-10.612 8.29-20.537 11.41-29.774m-167.559 2.504 38.048-8.879c3.69 8.866 6.937 18.442 9.743 28.729q4.6155 15.0915 7.368 30.012c1.858 9.698 2.926 18.445 3.205 26.242l-40.796 10.127q.327-11.6265-2.052-26.511c-1.586-9.923-3.782-20.028-6.588-30.316-2.534-10.512-5.51-20.314-8.928-29.404m-92.762-61.999 81.643 7.574-19.852 213.986-81.643-7.575 3.839-41.38 42.126 3.908 12.209-131.597-42.126-3.908zm-22.367-2.0752 39.143 3.6312-22.723 244.928-39.143-3.632zM632.701 99.5014c-6.357 3.6716-12.613 7.6036-18.767 11.7956-6.131 3.943-11.482 7.582-16.053 10.918-6.651 4.146-14.649 9.295-23.993 15.447-9.073 5.926-18.677 12.179-28.813 18.759-9.865 6.354-19.469 12.607-28.813 18.759s-17.377 11.674-24.097 16.565c-6.992 5.117-11.78 9.435-14.362 12.956-2.56 3.272-2.883 6.751-.969 10.438 2.163 3.71 6.323 8.859 12.48 15.446q7.5435 7.8435 19.251 19.458 12.0795 11.649 25.815 25.707c9.429 9.147 18.947 18.679 28.556 28.594 9.88 9.69 19.262 19.334 28.148 28.932 9.157 9.372 17.242 18.144 24.255 26.315l-47.318 35.842c-9.354-12.649-19.093-25.209-29.217-37.679-5.186-6.246-11.996-13.897-20.431-22.952-8.163-9.28-17.161-19.013-26.995-29.201a3078 3078 0 0 0-28.79-30.119c-9.585-10.164-18.269-19.242-26.05-27.233-11.458-11.591-18.648-21.909-21.569-30.954-2.672-9.021-1.38-17.549 3.878-25.584 5.529-8.261 14.98-16.909 28.351-25.946 7.987-5.025 17.059-10.951 27.218-17.779 10.182-7.077 20.624-14.255 31.327-21.535 10.725-7.527 20.918-14.728 30.58-21.603q14.5275-10.6841 24.678-18.7666c5.975-4.9605 11.961-10.0451 17.959-15.2541q8.997-7.8134 13.686-13.7705zM92.2478 194.124 329.347 216.12l-3.701 39.89-237.0989-21.997zM233.771 62.8672l41.008 3.8045-5.43 58.5293c-.415 4.473-.184 7.378.695 8.712.879 1.335 3.058 2.164 6.538 2.487.497.046 1.615.15 3.355.311q2.61.243 5.592.519c2.237.208 4.225.392 5.965.553 1.739.162 3.106.289 4.1.381 2.983.277 5.245-1.143 6.788-4.258 1.565-3.365 3.173-11.237 4.823-23.617 3.451 3.328 8.653 6.693 15.607 10.096 6.954 3.402 13.096 6.103 18.425 8.101-2.442 12.808-5.624 22.791-9.547 29.947-3.651 6.931-8.348 11.634-14.093 14.109-5.472 2.249-12.434 2.982-20.884 2.198-1.491-.138-3.728-.346-6.71-.622-2.734-.254-5.592-.519-8.575-.796-2.982-.276-5.84-.542-8.574-.795-2.734-.254-4.971-.461-6.71-.623-11.433-1.06-20.129-3.246-26.088-6.556-5.937-3.559-9.712-8.797-11.327-15.715-1.342-7.144-1.483-16.431-.423-27.864zM109.725 17.8945l235.981 21.893-6.018 64.8665-40.262-3.735 2.594-27.96-156.948-14.5607-3.528 38.0253-38.77-3.597zm79.961 147.2925 43.99 4.081-18.089 194.973-43.99-4.081zM172.598 57.5679l41.38 3.8391q-3.297 23.3823-9.162 42.015c-3.887 12.173-9.635 22.794-17.244 31.864-7.338 8.845-17.295 16.193-29.87 22.045-12.575 5.853-28.774 10.24-48.598 13.164q-1.545-7.6635-7.356-17.979c-3.6025-7.102-7.2075-12.826-10.8151-17.171 16.2061-1.755 29.2501-4.556 39.1321-8.402 10.131-3.823 17.868-8.87 23.213-15.143 5.616-6.497 9.834-14.1276 12.652-22.8902 2.841-9.0112 5.064-19.4585 6.668-31.3419M242.005 229.45c5.401 12.031 12.429 24.089 21.084 36.172 8.904 12.106 18.882 23.435 29.936 33.986 11.301 10.574 22.753 19.532 34.355 26.876-3.71 2.162-7.761 5.296-12.153 9.4a290 290 0 0 0-12.767 11.976c-3.917 4.399-7.303 8.472-10.157 12.218q-17.5335-13.659-33.36-33.552c-10.551-13.261-20.265-27.448-29.14-42.56-8.627-15.088-15.728-30.411-21.304-45.969zm-67.027-11.107 33.971 14.808q-14.2815 24.243-33.54 45.393c-12.839 14.1-26.782 26.593-41.83 37.48-14.799 10.91-30.52 19.603-47.164 26.081q-4.4928-8.313-11.7605-19.14c-4.8452-7.217-9.3085-13.146-13.3901-17.786q23.2325-7.245 44.7466-20.289c14.343-8.696 27.435-18.762 39.274-30.197 11.84-11.435 21.738-23.552 29.693-36.35M14.182 30.4628 42.9486.0431q10.7342 5.8839 22.414 13.7356 12.0525 7.8863 22.9521 16.0416c7.2664 5.4369 12.9293 10.5996 16.9873 15.4882L74.7676 78.5722q-5.715-7.2983-16.2072-15.7918-10.0847-8.8318-21.6953-17.4291T14.182 30.4628M-11.3594 131.495l26.3645-32.8989q11.2108 4.7999 23.3671 11.5679c8.3758 4.287 16.3442 8.911 23.9052 13.874q11.3761 7.071 18.2787 13.728l-27.8633 36.896q-6.4952-6.9945-17.4294-14.778c-7.0409-5.165-14.7146-10.263-23.0212-15.296-8.0581-5.009-15.9253-9.373-23.6016-13.093m-7.5581 182.789Q-8.2487 300.61 3.988 282.193q12.6442-18.756 25.9033-40.086c8.8393-14.22 17.1586-28.238 24.9578-42.053l31.8416 29.651q-10.4073 18.9615-22.0369 38.94c-7.753 13.318-15.483 26.388-23.1899 39.209s-15.4804 25.009-23.3206 36.565z"/>
  </g>
  <defs>
    <clipPath id="a">
      <path fill="#fff" d="M0 0h1440v401H0z"/>
    </clipPath>
  </defs>
</svg>
