<svg xmlns="http://www.w3.org/2000/svg">
  <symbol id="alarm" viewBox="0 0 39 36">
    <path fill="currentColor" d="M19.036 2.63a16.406 16.406 0 1 0 16.407 16.406A16.425 16.425 0 0 0 19.036 2.63m0 28.875a12.469 12.469 0 1 1 12.47-12.469 12.48 12.48 0 0 1-12.47 12.47M3.366 8.617a1.972 1.972 0 0 1-2.788-2.79l5.25-5.25a1.972 1.972 0 0 1 2.789 2.79zm34.126 0a1.97 1.97 0 0 1-2.79 0l-5.25-5.25a1.973 1.973 0 0 1 2.79-2.79l5.25 5.25a1.97 1.97 0 0 1 0 2.79m-10.58 8.45a1.969 1.969 0 1 1 0 3.938h-7.876a1.97 1.97 0 0 1-1.968-1.969v-7.875a1.969 1.969 0 0 1 3.937 0v5.907z"/>
  </symbol>
  <symbol id="check" viewBox="0 0 39 36">
    <path fill="currentColor" d="M35.56 14.446c-.577-.602-1.172-1.224-1.368-1.695-.174-.42-.187-1.285-.198-2.046-.025-1.64-.056-3.681-1.506-5.13s-3.49-1.477-5.13-1.506c-.762-.012-1.626-.025-2.046-.199-.471-.195-1.093-.79-1.695-1.368C22.455 1.388 21.008 0 19.03 0s-3.424 1.388-4.585 2.502c-.602.577-1.224 1.173-1.695 1.368-.42.174-1.285.187-2.046.199-1.64.033-3.681.056-5.127 1.51s-1.476 3.485-1.51 5.126c-.01.761-.024 1.626-.198 2.046-.195.47-.79 1.093-1.368 1.695C1.388 15.607 0 17.063 0 19.03 0 21 1.388 22.455 2.502 23.625c.577.602 1.173 1.224 1.368 1.695.174.42.187 1.284.199 2.046.024 1.64.056 3.681 1.506 5.13s3.49 1.476 5.13 1.506c.761.011 1.626.025 2.046.198.47.196 1.093.791 1.695 1.369 1.161 1.105 2.617 2.493 4.585 2.493 1.969 0 3.424-1.387 4.586-2.501.602-.578 1.224-1.173 1.695-1.369.42-.174 1.284-.187 2.045-.198 1.641-.025 3.682-.056 5.13-1.506 1.45-1.45 1.477-3.49 1.507-5.13.011-.762.024-1.626.198-2.046.196-.471.791-1.093 1.368-1.695 1.114-1.162 2.502-2.609 2.502-4.586s-1.387-3.424-2.501-4.585m-2.841 6.446c-.79.82-1.687 1.759-2.164 2.913-.463 1.116-.48 2.324-.492 3.493-.013.88-.031 2.086-.353 2.406s-1.526.34-2.405.352c-1.17.018-2.377.036-3.493.492-1.148.478-2.088 1.374-2.914 2.164-.59.566-1.473 1.413-1.867 1.413s-1.276-.847-1.86-1.406c-.82-.79-1.759-1.687-2.914-2.164-1.116-.463-2.323-.48-3.493-.492-.88-.013-2.085-.031-2.405-.353s-.34-1.526-.353-2.405c-.018-1.17-.036-2.377-.492-3.493-.477-1.148-1.373-2.088-2.164-2.914-.566-.59-1.412-1.473-1.412-1.867s.846-1.276 1.406-1.86c.79-.82 1.686-1.759 2.164-2.914.462-1.116.48-2.323.492-3.493.02-.88.04-2.085.367-2.397.328-.312 1.526-.34 2.405-.353 1.17-.018 2.378-.036 3.493-.492 1.149-.477 2.089-1.373 2.914-2.164.576-.574 1.459-1.42 1.852-1.42.394 0 1.277.846 1.86 1.406.821.79 1.76 1.686 2.915 2.164 1.115.462 2.323.48 3.492.492.88.013 2.086.03 2.406.352s.34 1.526.352 2.406c.018 1.17.036 2.377.492 3.493.478 1.148 1.374 2.088 2.164 2.913.56.584 1.406 1.467 1.406 1.86 0 .394-.84 1.284-1.399 1.868M26.987 13.7a1.97 1.97 0 0 1 0 2.789l-9.188 9.187a1.97 1.97 0 0 1-2.789 0l-3.937-3.937a1.97 1.97 0 0 1 .64-3.217 1.97 1.97 0 0 1 2.149.428l2.544 2.541 7.795-7.796a1.97 1.97 0 0 1 2.786.005"/>
  </symbol>
  <symbol id="fire" viewBox="0 0 31 37">
    <path fill="currentColor" d="M18.035.453a1.97 1.97 0 0 0-3.105.84l-3.27 8.96-3.23-3.136a1.97 1.97 0 0 0-2.937.219C1.849 12.11 0 16.928 0 21.655a15.094 15.094 0 1 0 30.188 0c0-10.032-8.499-18.17-12.153-21.202m-2.941 32.358A11.17 11.17 0 0 1 3.938 21.655c0-3.271 1.148-6.664 3.397-10.113l3.762 3.65a1.97 1.97 0 0 0 3.22-.738l3.316-9.089c3.595 3.429 8.617 9.447 8.617 16.29A11.17 11.17 0 0 1 15.094 32.81"/>
  </symbol>
  <symbol id="like" viewBox="0 0 52 52">
    <path fill="currentColor" d="M48.1406 15.7361a5.688 5.688 0 0 0-4.2656-1.9236H33.3125V11.375a8.948 8.948 0 0 0-8.9375-8.9375 2.438 2.438 0 0 0-2.1795 1.3467l-7.4527 14.9033H6.5A4.0624 4.0624 0 0 0 2.4375 22.75v17.875A4.0624 4.0624 0 0 0 6.5 44.6875h34.9375a5.6876 5.6876 0 0 0 5.6428-4.9827l2.4375-19.5a5.6866 5.6866 0 0 0-1.3772-4.4687M7.3125 23.5625h6.5v16.25h-6.5zm37.375-3.9609-2.4375 19.5a.8124.8124 0 0 1-.8125.7109h-22.75V21.6998l7.0728-14.1435a4.063 4.063 0 0 1 2.6772 3.8187v4.875a2.4375 2.4375 0 0 0 2.4375 2.4375h13a.813.813 0 0 1 .7824.5719.81.81 0 0 1 .0301.3422"/>
  </symbol>
  <symbol id="phone" viewBox="0 0 24 24">
    <path fill="currentColor" d="M13.163 4.21a1.125 1.125 0 0 1 1.378-.797 8.45 8.45 0 0 1 6.046 6.046 1.126 1.126 0 1 1-2.174.582 6.23 6.23 0 0 0-4.454-4.454 1.125 1.125 0 0 1-.796-1.378m8.198 13a5.65 5.65 0 0 1-5.611 4.915c-7.65 0-13.875-6.224-13.875-13.875a5.65 5.65 0 0 1 4.914-5.611A1.88 1.88 0 0 1 8.738 3.75l1.979 4.418.007.017a1.88 1.88 0 0 1-.156 1.766q-.035.056-.08.107l-1.786 2.13c.662 1.203 1.922 2.452 3.14 3.113l2.091-1.781q.051-.042.105-.08a1.87 1.87 0 0 1 1.781-.162l.017.007 4.414 1.977a1.88 1.88 0 0 1 1.11 1.949m-2.28-.005-3.937-1.763-2.102 1.787a1 1 0 0 1-.104.08 1.87 1.87 0 0 1-1.846.128c-1.827-.88-3.646-2.688-4.53-4.5a1.88 1.88 0 0 1 .12-1.84q.037-.057.081-.109l1.796-2.13-1.764-3.937a3.4 3.4 0 0 0-2.67 3.329A11.64 11.64 0 0 0 15.75 19.875a3.4 3.4 0 0 0 3.332-2.67m-6.178-8.067a3 3 0 0 1 1.96 1.96 1.126 1.126 0 0 0 1.41.735 1.125 1.125 0 0 0 .735-1.406 5.25 5.25 0 0 0-3.43-3.43 1.125 1.125 0 1 0-.675 2.145z"/>
  </symbol>
  <symbol id="smile" viewBox="0 0 52 52">
    <path fill="currentColor" d="M26 4.0625A21.9374 21.9374 0 1 0 47.9375 26a21.962 21.962 0 0 0-6.4325-15.505A21.962 21.962 0 0 0 26 4.0625m0 39a17.062 17.062 0 0 1-15.7637-10.533 17.0623 17.0623 0 0 1 12.435-23.2641A17.0622 17.0622 0 0 1 43.0625 26 17.0806 17.0806 0 0 1 26 43.0625m-10.5625-21.125a3.2502 3.2502 0 0 1 5.5481-2.2981 3.25 3.25 0 1 1-5.5481 2.2981m22.75 0A2.4375 2.4375 0 0 1 35.75 24.375h-4.875a2.4377 2.4377 0 0 1-2.4375-2.4375A2.4375 2.4375 0 0 1 30.875 19.5h4.875a2.4375 2.4375 0 0 1 2.4375 2.4375m-1.952 10.1562C34.0011 35.9653 30.2656 38.1875 26 38.1875s-7.995-2.2202-10.2355-6.0938a2.437 2.437 0 0 1 .9138-3.291 2.4373 2.4373 0 0 1 3.3072.8535c.7901 1.3671 2.6223 3.6563 6.0145 3.6563s5.2244-2.2913 6.0145-3.6563a2.437 2.437 0 0 1 1.4806-1.1684 2.437 2.437 0 0 1 1.8711.2379c.2804.1619.5258.3781.7217.636a2.4375 2.4375 0 0 1 .1476 2.732"/>
  </symbol>
  <symbol id="timer" viewBox="0 0 52 52">
    <path fill="currentColor" d="M26 8.9375A19.5005 19.5005 0 0 0 7.9844 20.9752a19.4999 19.4999 0 0 0 25.4779 25.4779A19.5 19.5 0 0 0 45.5 28.4375a19.523 19.523 0 0 0-5.7179-13.7821A19.523 19.523 0 0 0 26 8.9375m0 34.125a14.6245 14.6245 0 0 1-13.5117-9.0283 14.624 14.624 0 0 1 3.1703-15.9381 14.624 14.624 0 0 1 15.9382-3.1703 14.625 14.625 0 0 1 9.0282 13.5117A14.641 14.641 0 0 1 26 43.0625m7.412-22.8495a2.4379 2.4379 0 0 1 .5306 2.6613 2.44 2.44 0 0 1-.5306.7918l-5.6875 5.6875a2.4416 2.4416 0 1 1-3.4531-3.4531l5.6875-5.6875a2.4375 2.4375 0 0 1 3.4531 0M18.6875 3.25A2.4375 2.4375 0 0 1 21.125.8125h9.75a2.4375 2.4375 0 1 1 0 4.875h-9.75A2.4376 2.4376 0 0 1 18.6875 3.25"/>
  </symbol>
</svg>